<svg xmlns="http://www.w3.org/2000/svg" viewBox="0 0 84.1 32.4"><defs><style>.cls-3{fill:#213652}.cls-4{fill:#c3996b}.cls-5{fill:#a87c4f}.cls-6{fill:#d0d2d3}.cls-11,.cls-6,.cls-7{stroke:#231f20;stroke-miterlimit:10;stroke-width:.25px}.cls-7{fill:#fff}.cls-10{fill:#754c28}.cls-11{fill:none}</style></defs><g id="Layer_2" data-name="Layer 2"><g id="Layer_1-2" data-name="Layer 1"><text transform="translate(33.51 20.59)" font-family="SavoyeLetPlain,Savoye LET" fill="#213652" font-size="16.68">The Beaver</text><text transform="translate(62.4 14.93)" font-size="3.79" font-family="SavoyeLetPlain,Savoye LET" fill="#213652">Be Aware...!</text><path class="cls-3" d="M16 16.3l-6 14.64a.37.37 0 0 0 .34.51h12.09a.37.37 0 0 0 .34-.51L16.71 16.3a.37.37 0 0 0-.71 0z"/><path class="cls-3" d="M16 16L1.32 22.08a.37.37 0 0 0-.12.6l8.58 8.57a.36.36 0 0 0 .6-.12l6.06-14.64A.37.37 0 0 0 16 16z"/><path class="cls-3" d="M16.14 15.73L1.5 9.66A.36.36 0 0 0 1 10v12.13a.36.36 0 0 0 .5.34l14.64-6.06a.36.36 0 0 0 0-.68z"/><path class="cls-3" d="M16.46 15.67L10.39 1a.37.37 0 0 0-.6-.12l-8.58 8.6a.38.38 0 0 0 .12.61L16 16.15a.37.37 0 0 0 .46-.48z"/><path class="cls-3" d="M16.72 15.85l6.06-14.64a.37.37 0 0 0-.34-.51H10.31a.37.37 0 0 0-.34.51L16 15.85a.37.37 0 0 0 .72 0z"/><path class="cls-3" d="M16.78 16.16l14.64-6.07a.37.37 0 0 0 .12-.6L23 .92a.36.36 0 0 0-.6.12l-6.11 14.64a.37.37 0 0 0 .49.48z"/><path class="cls-3" d="M16.6 16.42l14.64 6.06a.37.37 0 0 0 .51-.34V10a.37.37 0 0 0-.51-.34L16.6 15.74a.37.37 0 0 0 0 .68z"/><path class="cls-3" d="M16.29 16.48l6.06 14.64a.37.37 0 0 0 .6.12l8.58-8.58a.37.37 0 0 0-.12-.6L16.77 16a.37.37 0 0 0-.48.48z"/><path class="cls-3" d="M15.88 16.33l-4.77 15.11a.37.37 0 0 0 .39.48l12.08-1.06a.36.36 0 0 0 .29-.53l-7.31-14.06a.37.37 0 0 0-.68.06z"/><path class="cls-3" d="M15.79 16.05L1.73 23.37a.36.36 0 0 0-.07.6l9.34 7.8a.37.37 0 0 0 .59-.17l4.77-15.11a.37.37 0 0 0-.57-.44z"/><path class="cls-3" d="M16 15.75L.83 11a.36.36 0 0 0-.47.39l1 12.08a.37.37 0 0 0 .54.29L16 16.43a.37.37 0 0 0 0-.68z"/><path class="cls-3" d="M16.25 15.66l-7.32-14a.37.37 0 0 0-.61-.07L.53 10.83a.37.37 0 0 0 .17.59l15.11 4.76a.37.37 0 0 0 .44-.52z"/><path class="cls-3" d="M16.53 15.82L21.29.7a.36.36 0 0 0-.38-.47L8.83 1.28a.37.37 0 0 0-.3.54l7.32 14.06a.37.37 0 0 0 .68-.06z"/><path class="cls-3" d="M16.61 16.12L30.67 8.8a.36.36 0 0 0 .06-.6L21.44.4a.36.36 0 0 0-.58.17l-4.77 15.11a.37.37 0 0 0 .52.44z"/><path class="cls-3" d="M16.46 16.4l15.11 4.76a.37.37 0 0 0 .48-.38L31 8.7a.37.37 0 0 0-.54-.3l-14 7.32a.37.37 0 0 0 0 .68z"/><path class="cls-3" d="M16.15 16.48l7.32 14.06a.37.37 0 0 0 .61.07l7.8-9.3a.37.37 0 0 0-.18-.58L16.59 16a.37.37 0 0 0-.44.48z"/><path class="cls-3" d="M15.9 16.49L12.47 32a.38.38 0 0 0 .43.44l11.94-2.11a.37.37 0 0 0 .25-.56l-8.52-13.4a.37.37 0 0 0-.67.12z"/><path class="cls-3" d="M15.79 16.21L2.42 24.73a.36.36 0 0 0 0 .61l9.93 7a.37.37 0 0 0 .57-.22l3.42-15.52a.37.37 0 0 0-.55-.39z"/><path class="cls-3" d="M15.92 15.9L.45 12.47a.37.37 0 0 0-.45.43l2.1 11.94a.37.37 0 0 0 .56.25L16 16.57a.37.37 0 0 0-.08-.67z"/><path class="cls-3" d="M16.21 15.79L7.7 2.42a.37.37 0 0 0-.61 0l-7 9.94a.37.37 0 0 0 .22.57l15.47 3.43a.37.37 0 0 0 .43-.57z"/><path class="cls-3" d="M16.5 15.92L19.93.45a.36.36 0 0 0-.42-.45l-12 2.1a.37.37 0 0 0-.24.56L15.83 16a.37.37 0 0 0 .67-.08z"/><path class="cls-3" d="M16.61 16.21L30 7.7a.36.36 0 0 0 0-.61l-9.93-7a.37.37 0 0 0-.57.22l-3.44 15.51a.36.36 0 0 0 .55.39z"/><path class="cls-3" d="M16.49 16.5L32 19.93a.37.37 0 0 0 .44-.42l-2.11-12a.37.37 0 0 0-.56-.24l-13.4 8.56a.37.37 0 0 0 .12.67z"/><path class="cls-3" d="M16.19 16.61L24.7 30a.37.37 0 0 0 .62 0l7-9.93a.36.36 0 0 0-.22-.57l-15.52-3.44a.36.36 0 0 0-.39.55z"/><path class="cls-4" d="M26.73 15.54l1-.61.89-.75a2.71 2.71 0 0 0 .64-.79l.44-.8a2.28 2.28 0 0 0 .23-.68l.1-.51a4.44 4.44 0 0 0 0-1.26v-.09A2.15 2.15 0 0 0 29.69 9a.88.88 0 0 0-.12-.15l-.06-.07a1.06 1.06 0 0 0-.29-.27h-.1A2.92 2.92 0 0 0 28 8.07h-.15a2 2 0 0 0-.54 0h-.12a2.67 2.67 0 0 0-1 .37l-.17.1a6.31 6.31 0 0 0-.94.69l-.15.14a8 8 0 0 0-.76.78l-.43.67z"/><path class="cls-5" d="M26 14.23c.09-.08.58-.34.61-.37l.39-.37a2.5 2.5 0 0 0 .32-.33l.48-.61.16-.23v-.05a2.48 2.48 0 0 0 .37-1.19.76.76 0 0 0 0-.15 2.44 2.44 0 0 1 0-.26 1 1 0 0 0-.25-.67.92.92 0 0 0-.69-.29h-.23a1.65 1.65 0 0 0-1 .57l-.35.45-1.42 1.11z"/><path class="cls-4" d="M29.66 12.59a2.28 2.28 0 0 0 .23-.68l.1-.51a4.44 4.44 0 0 0 0-1.26v-.09a2.15 2.15 0 0 0-.3-1.05.88.88 0 0 0-.12-.15l-.06-.07a1.06 1.06 0 0 0-.29-.27h-.1A2.92 2.92 0 0 0 28 8.07h-.15a2 2 0 0 0-.54 0h-.12a2.67 2.67 0 0 0-1 .37l-.17.1"/><path class="cls-5" d="M27.8 12.55l.16-.23v-.05a2.48 2.48 0 0 0 .37-1.19.76.76 0 0 0 0-.15 2.44 2.44 0 0 1 0-.26 1 1 0 0 0-.25-.67.92.92 0 0 0-.69-.29h-.23a1.65 1.65 0 0 0-1 .57l-.35.45"/><path class="cls-4" d="M28.49 19.12c-.16-.38-.64-1.34-.83-1.71s-.63-1.33-.86-1.76-.88-1.44-1.29-2.05c-.58-.88-1.32-2-1.73-2.66a12.42 12.42 0 0 0-.85-1.4 11.6 11.6 0 0 0-1.57-1.31 9.67 9.67 0 0 0-1.48-.74 7.77 7.77 0 0 0-1.64-.42 12.21 12.21 0 0 0-1.34-.15c-.37 0-1.45.1-1.45.1a12.87 12.87 0 0 0-1.74.39l-.26.08a11.31 11.31 0 0 0-1.15.43 7.88 7.88 0 0 0-1.36.76 3.71 3.71 0 0 0-.82.81l-.39.51c-.29.43-.44.59-.73 1l-.41.64-.51.77-.41.64-.35.55c-.23.37-.26.43-.52.82-.11.23-.22.47-.32.72l-.31.86a13.84 13.84 0 0 0-.67 1.47v.44a1.77 1.77 0 0 1-.22.67 17 17 0 0 0-.66 1.73l-.11.24-.09.14a1.89 1.89 0 0 0-.25.58l-.17.29a.08.08 0 0 0 0 .08.14.14 0 0 0 .24 0v-.1a.71.71 0 0 1 .25-.34l.09-.06a.17.17 0 0 1 .28.1l.07.39v.16a2.37 2.37 0 0 1-.09.65l-.07.27a.39.39 0 0 0 .17.46h.24a.18.18 0 0 1 .18.16v.11a3.47 3.47 0 0 1-.06.45l-.06.27s-.23.36.43.26.72-.33.72-.33.08-.23 0 .16a1.45 1.45 0 0 1-.11.35 1.11 1.11 0 0 0-.09.57.19.19 0 0 0 .19.18l.15.25a.44.44 0 0 0 .42.31H7l.38-.23s.06.56.26.66.1.08.2.13.28.16.37 0l.56.49.89.56.69.62 2.46 1.25 1.21.45a3.33 3.33 0 0 0 .6.16 6.09 6.09 0 0 0 1.2.11h2.5a2.75 2.75 0 0 0 .95-.16l.26-.07a5.85 5.85 0 0 0 1.47-.5l.95-.53 1.51-1 1.44-1 .67-.49.38-.44a.3.3 0 0 1 .17-.1 1.82 1.82 0 0 1 .52 0 .07.07 0 0 0 .06 0l.18-.21a1.78 1.78 0 0 1 .35-.32l-.2-.43-.16-.59s-.13-.1.16-.1.56.36.56.36a.28.28 0 0 0 .5 0 2 2 0 0 0 0-1.21h.12a.48.48 0 0 0 .47-.42l-.14-1.4c0-.2.07-.42.43-.12a.28.28 0 0 0 .48-.16z"/><path class="cls-6" d="M18.54 28.83l1-3.57c2.36.35 4.84-.42 5.27-3 .22-1.27-1.11-2.59-3.69-2.37-.13 1.81-2 2.51-4.12 2.67s-4.37-.75-4.25-2.38c-1.4-1.11-3.75.44-3.75 2.1s2.2 3.27 5.45 3l.91 3.64z"/><path class="cls-6" d="M21 19.87c0 3.4-8.89 3.76-8.37 0 .23-1.66 2.9-2.8 4.2-2.8S21 18.3 21 19.87z"/><path class="cls-7" d="M17 24.42l.59.54a4.27 4.27 0 0 0 1.41.48l.55.1-1 3.62H17v-4.74zM17 24.42l-.48.49a3.44 3.44 0 0 1-1.49.51l-.59.12 1 3.62H17v-4.74z"/><g id="Eye"><path class="cls-7" d="M15.28 15.32c.12 1 .45.48-1.79 1.3-2.66 1-1.91 2.62-2.35-.86-.24-1.86.57-3.48 1.71-3.6s2.21 1.3 2.43 3.16zM19 15.85c.2 1-.48.52 1.84 1.1s1.9 1 2.19-1.23c.19-1.44-.72-3.42-1.87-3.54S18.53 13.6 19 15.85z"/><ellipse cx="21" cy="14.66" rx="1.5" ry=".99" transform="rotate(-84.24 20.99531 14.66222)" fill="#36c"/><ellipse cx="13" cy="14.66" rx=".98" ry="1.51" transform="rotate(-9.65 12.96256 14.636)" fill="#1b75bb"/></g><g id="Eyebrow"><path class="cls-10" d="M20.45 10.61c-.34.62 0 .74.42.77h.37a6.82 6.82 0 0 1 1.53.14 1.42 1.42 0 0 0-.2-.77c-.15-.3-.18-.51-1-.57s-.93 0-1.09.41zM12.12 11.31c.1 0 .19-.1.31-.11l.4-.06a10.74 10.74 0 0 1 1.59 0 .28.28 0 0 0 .23-.11.58.58 0 0 0 .08-.5c-.1-.41-.82-.57-1.58-.37s-1.43.67-1.16 1c.06.1.01.16.13.15z"/></g><g id="Mustach"><path class="cls-11" d="M12 21.16H8.36a9.17 9.17 0 0 0-4.14.95l-.68.34M10.45 22.19l-1.93.31a14 14 0 0 0-5 2.56M10.88 23.28l-1.74.57-.14.05a13.54 13.54 0 0 0-2.51 1.36l-1.58 1.09M22.28 21.05l3.58-.26h.8a5.44 5.44 0 0 1 2.3.65l1.39.75M23.44 22.21l1.35.2a8.66 8.66 0 0 1 3.15 1.11l1.32.77M22.86 23.09l1.86 1.09a10 10 0 0 1 1.47 1l1.59 1.35"/></g><path class="cls-4" d="M6.73 14.63l-1-.61-.89-.75a2.67 2.67 0 0 1-.64-.78l-.44-.81a2.68 2.68 0 0 1-.2-.68l-.09-.52a3.8 3.8 0 0 1 0-1.26v-.08a2.31 2.31 0 0 1 .32-1.05.79.79 0 0 1 .12-.15L4 7.87a.73.73 0 0 1 .29-.26l.1-.06a3.09 3.09 0 0 1 1.14-.39h.15a1.88 1.88 0 0 1 .53 0h.13a2.84 2.84 0 0 1 1 .37l.17.11a6.22 6.22 0 0 1 .93.69l.16.13a8 8 0 0 1 .76.78l.43.67z"/><path class="cls-5" d="M7.5 13.34c-.09-.08-.58-.34-.62-.37l-.39-.36a3.28 3.28 0 0 1-.31-.34l-.48-.61-.16-.23a2.43 2.43 0 0 1-.38-1.2.76.76 0 0 1 0-.15v-.26a1 1 0 0 1 .24-.66.9.9 0 0 1 .7-.3h.22a1.65 1.65 0 0 1 .95.57l.35.45L9 11z"/><path class="cls-4" d="M3.92 11.82a2.07 2.07 0 0 1-.24-.67l-.09-.52a3.8 3.8 0 0 1 0-1.26v-.09a2.43 2.43 0 0 1 .31-1l.1-.2.06-.08a.89.89 0 0 1 .29-.26l.1-.06A3.08 3.08 0 0 1 5.6 7.3h.14a2 2 0 0 1 .54 0h.12a2.79 2.79 0 0 1 1 .38l.16.1"/><path class="cls-5" d="M5.78 11.78a1.88 1.88 0 0 1-.16-.23 2.43 2.43 0 0 1-.38-1.2.76.76 0 0 1 0-.15v-.25a1 1 0 0 1 .24-.67.94.94 0 0 1 .7-.3L6.4 9a1.66 1.66 0 0 1 .95.58l.35.42"/></g></g></svg>